<svg xmlns="http://www.w3.org/2000/svg" aria-hidden="true" style="position:absolute;width:0;height:0;overflow:hidden"><defs>
<symbol id="why-1" viewBox="0 0 49 32">
<path fill="#06f" style="fill: var(--color1, #06f)" d="M49.052 18.022c-0.369-4.041-0.978-4.828-1.207-5.124-0.528-0.684-1.374-1.131-2.268-1.6-0.051-0.026-0.094-0.063-0.128-0.109s-0.055-0.098-0.064-0.153-0.005-0.111 0.012-0.165c0.017-0.053 0.047-0.102 0.086-0.142 0.166-0.164 0.293-0.361 0.373-0.577s0.111-0.447 0.092-0.676c-0.039-0.406-0.232-0.784-0.543-1.057s-0.715-0.423-1.134-0.42h-1.6c-0.069 0-0.137 0.005-0.205 0.013-0.047-0.020-0.095-0.035-0.145-0.047-0.948-1.953-2.245-4.627-4.935-5.932-3.989-1.934-11.338-2.034-12.774-2.034s-8.785 0.1-12.769 2.031c-2.69 1.305-3.987 3.979-4.935 5.932l-0.008 0.016c-0.047 0.006-0.094 0.018-0.138 0.034-0.068-0.008-0.137-0.013-0.205-0.013h-1.603c-0.419-0.004-0.823 0.146-1.134 0.42s-0.505 0.651-0.543 1.057c-0.018 0.229 0.014 0.458 0.096 0.674s0.209 0.411 0.375 0.573c0.040 0.040 0.069 0.089 0.086 0.142s0.021 0.11 0.012 0.165c-0.009 0.055-0.031 0.107-0.064 0.153s-0.077 0.082-0.128 0.109c-0.894 0.472-1.744 0.919-2.268 1.6-0.23 0.3-0.837 1.083-1.207 5.124-0.205 2.274-0.236 4.628-0.075 6.144 0.338 3.15 0.97 5.054 0.997 5.133 0.097 0.288 0.276 0.542 0.516 0.735s0.53 0.315 0.838 0.352v0.020c0 0.424 0.173 0.831 0.481 1.131s0.725 0.469 1.161 0.469h5.744c0.435 0 0.853-0.169 1.161-0.469s0.481-0.707 0.481-1.131c0.883 0 1.498-0.154 2.149-0.318 0.94-0.247 1.902-0.411 2.872-0.491 3.13-0.291 6.242-0.391 8.11-0.391 1.83 0 5.080 0.1 8.214 0.391 0.974 0.080 1.939 0.245 2.884 0.493 0.624 0.156 1.216 0.3 2.035 0.315 0 0.424 0.173 0.831 0.481 1.131s0.725 0.469 1.161 0.469h5.744c0.435 0 0.853-0.169 1.161-0.469s0.481-0.707 0.481-1.131v-0.012c0.309-0.037 0.6-0.159 0.841-0.351s0.42-0.448 0.517-0.736c0.027-0.079 0.66-1.983 0.997-5.133 0.161-1.517 0.132-3.867-0.075-6.145zM9.874 9.331c0.821-1.7 1.759-3.624 3.43-4.435 2.415-1.172 7.42-1.7 11.307-1.7s8.893 0.524 11.307 1.7c1.671 0.811 2.606 2.736 3.43 4.435l0.103 0.217c0.060 0.124 0.086 0.26 0.077 0.396s-0.055 0.268-0.131 0.383c-0.077 0.115-0.182 0.208-0.306 0.272s-0.263 0.095-0.403 0.091c-3.409-0.090-10.589-0.378-14.077-0.378s-10.668 0.295-14.082 0.385c-0.14 0.004-0.279-0.028-0.403-0.091s-0.229-0.157-0.306-0.272c-0.077-0.114-0.122-0.246-0.131-0.383s0.017-0.273 0.077-0.396c0.036-0.074 0.074-0.149 0.108-0.224zM11.098 17.294c-1.764 0.207-3.54 0.309-5.318 0.306-1.087 0-2.209-0.3-2.417-1.244-0.143-0.635-0.127-0.992-0.050-1.351 0.065-0.305 0.167-0.527 0.68-0.605 1.334-0.2 2.079 0.051 4.262 0.678 1.447 0.415 2.492 0.968 3.087 1.406 0.299 0.216 0.139 0.78-0.244 0.81zM33.807 25.494c-1.35 0.15-4.050 0.095-9.164 0.095s-7.814 0.055-9.163-0.095c-1.393-0.151-3.169-1.435-1.956-2.579 0.807-0.754 2.691-1.318 5.199-1.635s3.57-0.48 5.911-0.48c2.341 0 3.295 0.1 5.911 0.481s4.593 0.952 5.199 1.635c1.106 1.224-0.543 2.419-1.935 2.584v-0.006zM45.86 16.355c-0.205 0.948-1.334 1.244-2.417 1.244-1.811 0-3.621-0.102-5.42-0.306-0.314-0.029-0.46-0.566-0.142-0.81 0.586-0.449 1.641-0.991 3.087-1.406 2.183-0.627 3.442-0.878 4.523-0.669 0.264 0.051 0.403 0.327 0.42 0.5 0.072 0.482 0.055 0.972-0.050 1.448v-0.001z"></path>
<path fill="#06f" style="fill: var(--color1, #06f)" d="M49.052 18.022v0zM47.845 12.898l-0.649 0.502 0.001 0.002 0.648-0.503zM45.577 11.298l0.381-0.727-0.005-0.003-0.376 0.729zM45.484 10.73l-0.577-0.584-0.007 0.007 0.584 0.577zM45.948 9.477l0.817-0.071-0.001-0.006-0.817 0.078zM44.271 8v0.82h0.007l-0.007-0.821zM42.671 8v-0.821l-0.005 0 0.005 0.821zM42.466 8.013l-0.32 0.756 0.201 0.085 0.217-0.026-0.099-0.815zM42.321 7.966l-0.738 0.358 0.171 0.352 0.381 0.089 0.186-0.799zM37.386 2.034l0.358-0.738-0-0-0.358 0.738zM11.843 2.031l-0.358-0.738-0 0 0.358 0.738zM6.908 7.963l0.73 0.374 0.004-0.008 0.004-0.008-0.738-0.358zM6.9 7.979l0.111 0.813 0.423-0.058 0.195-0.38-0.73-0.374zM6.761 8.013l-0.099 0.815 0.193 0.023 0.183-0.066-0.278-0.772zM6.556 8l0.005-0.821h-0.005v0.821zM4.953 8l-0.007 0.82h0.007v-0.821zM3.276 9.477l-0.817-0.078-0.001 0.006-0.001 0.006 0.818 0.065zM3.746 10.724l0.584-0.577-0.005-0.005-0.005-0.005-0.574 0.586zM3.653 11.292l-0.376-0.729-0.007 0.004 0.383 0.726zM1.385 12.892l-0.65-0.5-0.001 0.002 0.651 0.499zM0.178 18.016l-0.817-0.075-0 0.001 0.817 0.074zM0.103 24.16v0zM1.1 29.293v0zM2.454 30.38h0.821v-0.726l-0.721-0.088-0.1 0.814zM2.454 30.4v0zM11.481 30.4v-0.82h-0.821v0.82h0.82zM13.63 30.082l0.2 0.796 0.008-0.002-0.208-0.794zM16.502 29.591l0.067 0.818 0.009-0.001-0.076-0.817zM32.827 29.591l-0.076 0.817 0.009 0.001 0.067-0.818zM35.71 30.084l-0.209 0.794 0.010 0.002 0.199-0.796zM37.745 30.399h0.821v-0.806l-0.806-0.015-0.015 0.82zM46.772 30.387l-0.098-0.815-0.723 0.087v0.728h0.821zM48.13 29.3v0zM49.127 24.167l0.816 0.087 0-0.001-0.816-0.087zM9.874 9.331l-0.739-0.357-0.005 0.010-0.004 0.010 0.748 0.338zM13.305 4.896v0zM35.919 4.896l-0.359 0.738 0.001 0 0.358-0.738zM39.349 9.331l0.742-0.351-0.004-0.008-0.738 0.358zM39.452 9.548l-0.742 0.351 0.004 0.008 0.738-0.358zM38.689 10.69l-0.022 0.82h0.001l0.021-0.82zM10.53 10.697l0.021 0.82h0.001l-0.022-0.82zM9.767 9.555v0zM11.098 17.294l-0.064-0.818-0.016 0.001-0.016 0.002 0.096 0.815zM5.78 17.6l0.002-0.82h-0.002v0.82zM3.364 16.356l0.801-0.177-0.001-0.003-0.801 0.18zM3.313 15.005l0.802 0.172 0-0.002-0.803-0.17zM3.994 14.4l-0.122-0.811-0.002 0 0.123 0.811zM8.256 15.078l-0.227 0.789 0 0 0.226-0.789zM11.342 16.484l-0.486 0.661 0.005 0.004 0.481-0.665zM33.807 25.494h0.821v-0.917l-0.911 0.101 0.091 0.816zM15.479 25.494l0.091-0.816-0.002-0-0.088 0.816zM13.523 22.915l-0.56-0.6-0.003 0.003 0.563 0.597zM35.742 22.916l-0.614 0.545 0.005 0.005 0.609-0.55zM33.807 25.5h-0.821v0.924l0.917-0.109-0.097-0.815zM45.86 16.355h0.821l-1.622-0.174 0.802 0.174zM43.443 17.599v-0.82h-0l0 0.82zM38.023 17.293l0.093-0.815-0.009-0.001-0.009-0.001-0.075 0.817zM37.882 16.483l-0.499-0.651-0 0 0.499 0.651zM40.968 15.077l0.226 0.789 0-0-0.227-0.789zM45.491 14.408l0.156-0.806-0-0-0.156 0.806zM45.91 14.908l-0.817 0.078 0.002 0.022 0.003 0.022 0.811-0.122zM45.86 16.356h-0.821l1.621 0.178-0.801-0.178zM49.87 17.947c-0.374-4.097-1.004-5.072-1.376-5.553l-1.296 1.006c0.087 0.112 0.674 0.711 1.038 4.696l1.634-0.149zM48.495 12.396c-0.659-0.853-1.683-1.378-2.536-1.825l-0.762 1.453c0.936 0.491 1.602 0.86 2 1.375l1.299-1.003zM45.953 10.569c0.061 0.031 0.115 0.077 0.158 0.135l-1.322 0.972c0.109 0.149 0.251 0.269 0.413 0.352l0.752-1.459zM46.111 10.704c0.043 0.058 0.072 0.126 0.084 0.2l-1.619 0.266c0.030 0.184 0.104 0.357 0.213 0.506l1.322-0.972zM46.195 10.904c0.012 0.074 0.006 0.149-0.016 0.22l-1.562-0.503c-0.057 0.177-0.071 0.365-0.041 0.549l1.619-0.266zM46.178 11.123c-0.023 0.071-0.061 0.133-0.111 0.183l-1.167-1.153c-0.129 0.131-0.227 0.29-0.284 0.467l1.562 0.503zM46.061 11.313c0.25-0.247 0.443-0.545 0.566-0.875l-1.539-0.571c-0.038 0.103-0.099 0.198-0.181 0.279l1.154 1.167zM46.626 10.438c0.122-0.33 0.17-0.682 0.14-1.032l-1.635 0.142c0.009 0.108-0.005 0.217-0.043 0.32l1.539 0.571zM46.765 9.399c-0.059-0.617-0.353-1.186-0.818-1.596l-1.085 1.232c0.156 0.138 0.25 0.324 0.269 0.519l1.634-0.155zM45.948 7.804c-0.464-0.409-1.065-0.63-1.684-0.624l0.015 1.641c0.219-0.002 0.427 0.077 0.584 0.215l1.085-1.232zM44.271 7.179h-1.6v1.641h1.6v-1.641zM42.666 7.179c-0.1 0.001-0.2 0.007-0.299 0.019l0.198 1.629c0.037-0.005 0.074-0.007 0.111-0.007l-0.009-1.641zM42.785 7.257c-0.090-0.038-0.183-0.068-0.278-0.090l-0.372 1.598c0.004 0.001 0.008 0.002 0.011 0.004l0.639-1.511zM43.059 7.608c-0.93-1.916-2.333-4.865-5.315-6.312l-0.716 1.476c2.397 1.163 3.59 3.562 4.555 5.552l1.476-0.716zM37.744 1.296c-2.13-1.033-5.085-1.552-7.616-1.82-2.555-0.271-4.783-0.296-5.516-0.296v1.641c0.703 0 2.867 0.025 5.343 0.287 2.5 0.265 5.214 0.763 7.073 1.665l0.716-1.477zM24.612-0.821c-0.733 0-2.961 0.025-5.515 0.296-2.53 0.268-5.484 0.786-7.611 1.817l0.716 1.477c1.857-0.9 4.569-1.397 7.069-1.662 2.475-0.262 4.64-0.287 5.343-0.287v-1.641zM11.485 1.293c-2.982 1.447-4.385 4.396-5.315 6.312l1.476 0.716c0.966-1.99 2.158-4.389 4.555-5.552l-0.716-1.476zM6.178 7.588l-0.008 0.016 1.46 0.749 0.008-0.016-1.46-0.749zM6.788 7.166c-0.104 0.014-0.206 0.039-0.305 0.075l0.556 1.544c-0.009 0.003-0.019 0.006-0.028 0.007l-0.223-1.626zM6.86 7.198c-0.099-0.012-0.199-0.018-0.299-0.019l-0.010 1.641c0.037 0 0.074 0.003 0.111 0.007l0.198-1.629zM6.556 7.179h-1.603v1.641h1.603v-1.641zM4.96 7.18c-0.618-0.006-1.219 0.215-1.684 0.624l1.085 1.232c0.157-0.138 0.365-0.217 0.584-0.215l0.015-1.641zM3.276 7.804c-0.465 0.409-0.759 0.978-0.818 1.596l1.634 0.155c0.019-0.195 0.112-0.381 0.269-0.519l-1.085-1.232zM2.458 9.412c-0.028 0.35 0.022 0.701 0.146 1.029l1.535-0.58c-0.039-0.102-0.054-0.211-0.045-0.319l-1.636-0.13zM2.604 10.44c0.124 0.328 0.318 0.624 0.569 0.87l1.148-1.172c-0.082-0.080-0.143-0.175-0.182-0.277l-1.535 0.58zM3.163 11.301c-0.050-0.050-0.088-0.113-0.111-0.183l1.562-0.503c-0.057-0.177-0.155-0.337-0.284-0.467l-1.167 1.153zM3.052 11.117c-0.023-0.071-0.028-0.146-0.016-0.22l1.619 0.266c0.030-0.184 0.016-0.372-0.041-0.549l-1.562 0.503zM3.035 10.898c0.012-0.074 0.041-0.142 0.084-0.2l1.322 0.972c0.109-0.149 0.183-0.322 0.213-0.506l-1.619-0.266zM3.119 10.698c0.043-0.058 0.097-0.104 0.158-0.135l0.752 1.459c0.162-0.083 0.304-0.203 0.413-0.352l-1.322-0.972zM3.27 10.566c-0.849 0.448-1.88 0.974-2.535 1.825l1.3 1.001c0.393-0.511 1.061-0.879 2.001-1.375l-0.766-1.451zM0.734 12.393c-0.369 0.481-0.997 1.448-1.373 5.548l1.634 0.15c0.365-3.982 0.951-4.581 1.042-4.7l-1.303-0.998zM-0.64 17.942c-0.208 2.303-0.242 4.715-0.074 6.304l1.632-0.173c-0.153-1.443-0.126-3.738 0.076-5.984l-1.634-0.148zM-0.713 24.247c0.345 3.221 0.994 5.185 1.036 5.308l1.555-0.525c-0.012-0.035-0.629-1.879-0.959-4.958l-1.632 0.175zM0.322 29.556c0.148 0.438 0.419 0.823 0.779 1.112l1.027-1.28c-0.119-0.096-0.206-0.22-0.252-0.357l-1.555 0.525zM1.102 30.668c0.36 0.289 0.794 0.471 1.252 0.527l0.2-1.629c-0.158-0.019-0.305-0.082-0.425-0.178l-1.027 1.28zM1.633 30.38v0.020h1.641v-0.020h-1.641zM1.633 30.4c0 0.649 0.265 1.267 0.728 1.719l1.146-1.175c-0.152-0.148-0.233-0.344-0.233-0.544h-1.641zM2.362 32.119c0.463 0.452 1.087 0.702 1.733 0.702v-1.641c-0.224 0-0.435-0.087-0.588-0.236l-1.146 1.175zM4.095 32.821h5.744v-1.641h-5.744v1.641zM9.84 32.821c0.646 0 1.27-0.25 1.733-0.702l-1.146-1.175c-0.152 0.149-0.363 0.236-0.588 0.236v1.641zM11.573 32.119c0.464-0.452 0.729-1.070 0.729-1.719h-1.641c0 0.2-0.081 0.396-0.233 0.544l1.146 1.175zM11.481 31.221c0.992 0 1.691-0.177 2.349-0.343l-0.401-1.591c-0.644 0.162-1.174 0.293-1.949 0.293v1.641zM13.838 30.876c0.894-0.235 1.808-0.391 2.731-0.467l-0.134-1.636c-1.018 0.084-2.027 0.256-3.014 0.515l0.417 1.587zM16.578 30.408c3.102-0.288 6.188-0.387 8.034-0.387v-1.641c-1.89 0-5.028 0.101-8.186 0.395l0.152 1.634zM24.612 30.020c1.809 0 5.033 0.099 8.139 0.388l0.152-1.634c-3.164-0.294-6.439-0.395-8.29-0.395v1.641zM32.76 30.409c0.927 0.076 1.844 0.233 2.742 0.469l0.417-1.587c-0.991-0.26-2.003-0.433-3.025-0.517l-0.134 1.636zM35.511 30.88c0.632 0.158 1.3 0.323 2.219 0.339l0.030-1.641c-0.72-0.013-1.236-0.137-1.851-0.291l-0.398 1.592zM36.925 30.399c0 0.649 0.265 1.267 0.728 1.719l1.146-1.175c-0.152-0.148-0.233-0.344-0.233-0.544h-1.641zM37.653 32.118c0.463 0.452 1.087 0.702 1.733 0.702v-1.641c-0.224 0-0.435-0.087-0.588-0.236l-1.146 1.175zM39.386 32.82h5.744v-1.641h-5.744v1.641zM45.131 32.82c0.646 0 1.27-0.25 1.733-0.702l-1.146-1.175c-0.152 0.149-0.364 0.236-0.588 0.236v1.641zM46.864 32.118c0.464-0.452 0.728-1.070 0.728-1.719h-1.641c0 0.2-0.081 0.396-0.233 0.544l1.146 1.175zM47.593 30.399v-0.012h-1.641v0.012h1.641zM46.87 31.202c0.459-0.055 0.895-0.236 1.256-0.525l-1.025-1.281c-0.12 0.096-0.267 0.158-0.426 0.177l0.196 1.629zM48.126 30.676c0.361-0.289 0.633-0.675 0.782-1.113l-1.555-0.526c-0.046 0.137-0.133 0.262-0.253 0.358l1.025 1.281zM48.908 29.562c0.042-0.123 0.69-2.087 1.035-5.308l-1.632-0.175c-0.33 3.079-0.947 4.923-0.959 4.958l1.555 0.525zM49.943 24.254c0.169-1.59 0.136-3.998-0.074-6.306l-1.634 0.149c0.205 2.248 0.229 4.54 0.076 5.984l1.632 0.173zM10.613 9.688c0.415-0.859 0.829-1.708 1.334-2.443 0.503-0.732 1.057-1.291 1.716-1.611l-0.716-1.476c-1.012 0.491-1.762 1.299-2.352 2.158-0.587 0.855-1.053 1.818-1.459 2.659l1.478 0.713zM13.663 5.634c1.086-0.527 2.834-0.939 4.854-1.215 1.998-0.273 4.184-0.403 6.095-0.403v-1.641c-1.977 0-4.237 0.134-6.317 0.418-2.058 0.281-4.020 0.719-5.348 1.364l0.717 1.476zM24.612 4.016c1.911 0 4.097 0.129 6.095 0.402 2.020 0.275 3.767 0.687 4.853 1.216l0.719-1.475c-1.329-0.647-3.291-1.086-5.35-1.366-2.080-0.284-4.34-0.417-6.317-0.417v1.641zM35.561 5.634c0.659 0.32 1.212 0.879 1.714 1.611 0.505 0.736 0.919 1.585 1.336 2.445l1.476-0.717c-0.407-0.839-0.873-1.802-1.459-2.656-0.589-0.858-1.339-1.667-2.351-2.158l-0.717 1.476zM38.608 9.682l0.103 0.217 1.484-0.701-0.103-0.217-1.484 0.701zM38.714 9.906c-0.002-0.005-0.004-0.011-0.003-0.019l1.637 0.114c0.020-0.28-0.035-0.56-0.157-0.812l-1.476 0.717zM38.711 9.887c0.001-0.007 0.003-0.013 0.005-0.016l1.364 0.912c0.155-0.232 0.248-0.502 0.267-0.782l-1.637-0.114zM38.716 9.871c0.002-0.003 0.004-0.004 0.002-0.003l0.748 1.461c0.247-0.126 0.459-0.314 0.614-0.546l-1.364-0.912zM38.718 9.868c-0.001 0.001-0.004 0.002-0.008 0.002l-0.042 1.64c0.276 0.007 0.551-0.055 0.798-0.181l-0.748-1.461zM38.711 9.87c-3.382-0.089-10.597-0.378-14.099-0.378v1.641c3.474 0 10.62 0.287 14.055 0.378l0.043-1.64zM24.612 9.491c-3.501 0-10.718 0.296-14.104 0.385l0.043 1.64c3.442-0.091 10.586-0.385 14.060-0.385v-1.641zM10.509 9.877c-0.004 0-0.007-0.001-0.008-0.002l-0.748 1.461c0.247 0.126 0.521 0.188 0.798 0.181l-0.042-1.64zM10.501 9.875c-0.001-0.001 0-0 0.002 0.003l-1.364 0.912c0.155 0.232 0.367 0.42 0.614 0.546l0.748-1.461zM10.503 9.878c0.002 0.003 0.005 0.009 0.005 0.016l-1.637 0.114c0.020 0.28 0.112 0.549 0.268 0.782l1.364-0.912zM10.508 9.894c0.001 0.007-0.001 0.014-0.003 0.019l-1.476-0.717c-0.122 0.252-0.177 0.531-0.157 0.812l1.637-0.114zM10.505 9.913c0.028-0.057 0.077-0.156 0.117-0.245l-1.496-0.675c-0.028 0.061-0.054 0.112-0.098 0.203l1.476 0.716zM11.003 16.479c-1.732 0.203-3.476 0.304-5.221 0.3l-0.003 1.641c1.81 0.003 3.618-0.101 5.415-0.312l-0.191-1.63zM5.78 16.779c-0.484 0-0.911-0.069-1.21-0.199-0.282-0.123-0.375-0.26-0.406-0.401l-1.603 0.353c0.177 0.803 0.749 1.288 1.352 1.551 0.585 0.255 1.263 0.337 1.866 0.337v-1.641zM4.164 16.176c-0.121-0.537-0.097-0.773-0.049-0.999l-1.605-0.344c-0.105 0.491-0.113 0.97 0.052 1.703l1.601-0.36zM4.116 15.175c0.006-0.027 0.010-0.045 0.014-0.058s0.005-0.015 0.004-0.012c-0.001 0.003-0.006 0.014-0.015 0.028s-0.022 0.032-0.037 0.048c-0.016 0.017-0.032 0.030-0.046 0.040s-0.023 0.014-0.024 0.014c-0.001 0 0.006-0.003 0.023-0.007s0.044-0.011 0.082-0.017l-0.247-1.622c-0.354 0.054-0.71 0.178-0.981 0.465-0.262 0.277-0.341 0.601-0.379 0.782l1.605 0.34zM4.115 15.211c1.122-0.168 1.683 0.014 3.914 0.655l0.453-1.577c-2.135-0.613-3.065-0.932-4.61-0.701l0.243 1.623zM8.030 15.867c1.369 0.393 2.322 0.907 2.826 1.278l0.973-1.322c-0.686-0.505-1.821-1.097-3.347-1.534l-0.452 1.578zM10.861 17.149c-0.217-0.157-0.187-0.372-0.173-0.421 0.017-0.056 0.105-0.233 0.346-0.252l0.128 1.636c0.624-0.049 0.984-0.523 1.101-0.922 0.115-0.392 0.075-0.998-0.44-1.37l-0.962 1.329zM33.717 24.678c-1.29 0.143-3.906 0.090-9.074 0.090v1.641c5.061 0 7.845 0.057 9.255-0.1l-0.181-1.631zM24.643 24.768c-5.168 0-7.783 0.053-9.073-0.090l-0.181 1.631c1.41 0.157 4.193 0.1 9.254 0.1v-1.641zM15.568 24.678c-0.53-0.057-1.136-0.343-1.453-0.671-0.153-0.158-0.173-0.257-0.174-0.279-0.001-0.007-0.001-0.020 0.011-0.045 0.013-0.029 0.047-0.088 0.135-0.171l-1.126-1.194c-0.44 0.415-0.694 0.935-0.658 1.512 0.034 0.545 0.318 0.992 0.632 1.316 0.616 0.638 1.594 1.069 2.457 1.163l0.177-1.631zM14.083 23.515c0.268-0.25 0.799-0.535 1.645-0.797 0.825-0.256 1.873-0.468 3.097-0.623l-0.206-1.628c-1.285 0.162-2.433 0.391-3.378 0.684-0.925 0.287-1.739 0.662-2.278 1.165l1.12 1.199zM18.825 22.094c2.513-0.318 3.526-0.474 5.808-0.474v-1.641c-2.4 0-3.51 0.17-6.014 0.486l0.206 1.628zM24.633 21.62c2.289 0 3.201 0.095 5.792 0.472l0.237-1.624c-2.641-0.385-3.636-0.49-6.029-0.49v1.641zM30.425 22.093c1.284 0.187 2.388 0.418 3.23 0.677 0.421 0.129 0.762 0.261 1.020 0.39 0.268 0.134 0.401 0.241 0.453 0.301l1.227-1.089c-0.25-0.282-0.592-0.502-0.947-0.679-0.364-0.182-0.795-0.345-1.271-0.491-0.951-0.293-2.144-0.538-3.476-0.732l-0.237 1.624zM35.133 23.466c0.158 0.175 0.152 0.267 0.15 0.288-0.003 0.041-0.029 0.141-0.168 0.287-0.292 0.308-0.862 0.58-1.405 0.645l0.193 1.63c0.849-0.101 1.799-0.509 2.403-1.145 0.309-0.326 0.575-0.765 0.614-1.297 0.040-0.553-0.174-1.069-0.569-1.506l-1.218 1.1zM34.628 25.5v-0.006h-1.641v0.006h1.641zM45.058 16.181c-0.030 0.14-0.122 0.276-0.404 0.399-0.3 0.13-0.728 0.199-1.211 0.199v1.641c0.601 0 1.278-0.080 1.865-0.334 0.604-0.262 1.179-0.748 1.354-1.556l-1.604-0.347zM43.443 16.779c-1.78 0-3.559-0.1-5.328-0.301l-0.185 1.631c1.83 0.208 3.671 0.312 5.513 0.311l-0-1.641zM38.099 16.476c0.159 0.015 0.272 0.094 0.333 0.161 0.057 0.063 0.078 0.122 0.086 0.16 0.015 0.069 0.009 0.224-0.137 0.336l-0.999-1.302c-0.464 0.356-0.556 0.902-0.469 1.308 0.078 0.366 0.386 0.91 1.035 0.97l0.151-1.634zM38.381 17.134c0.482-0.369 1.436-0.873 2.814-1.268l-0.453-1.577c-1.513 0.434-2.67 1.015-3.359 1.543l0.998 1.302zM41.195 15.866c2.21-0.635 3.282-0.818 4.14-0.652l0.311-1.611c-1.304-0.252-2.749 0.067-4.905 0.686l0.453 1.577zM45.335 15.214c-0.126-0.024-0.19-0.098-0.207-0.122-0.010-0.013-0.015-0.024-0.019-0.035-0.003-0.008-0.011-0.031-0.015-0.072l1.634-0.155c-0.023-0.238-0.117-0.488-0.268-0.698-0.157-0.218-0.423-0.455-0.812-0.53l-0.312 1.611zM45.099 15.030c0.057 0.382 0.044 0.771-0.040 1.148l1.602 0.356c0.127-0.574 0.148-1.166 0.061-1.748l-1.623 0.244zM46.681 16.356v-0.001l-1.641 0.001h1.641z"></path>
</symbol>
<symbol id="burger" viewBox="0 0 47 32"><path d="M0.892 0.115c-0.236 0.106-0.436 0.252-0.599 0.432l-0.001 0.001-0.291 0.324v2.483l0.332 0.332c0.636 0.636-1.54 0.583 23.293 0.56l22.106-0.019 0.407-0.225 0.407-0.227v-3.375l-0.806-0.401-22.269 0.003c-18.902 0.003-22.316 0.020-22.579 0.112zM1.068 13.575c-0.359 0.109-0.742 0.384-0.909 0.653-0.141 0.23-0.159 0.384-0.159 1.412 0 1.004 0.020 1.187 0.151 1.401 0.217 0.355 0.735 0.628 1.364 0.72 0.742 0.108 43.081 0.108 43.821 0 0.295-0.042 0.679-0.156 0.854-0.252l0.316-0.175v-3.408l-0.698-0.39-22.263-0.013c-12.246-0.007-22.361 0.016-22.477 0.051zM1.219 27.081c-0.394 0.078-0.73 0.283-0.972 0.571l-0.002 0.003-0.244 0.279v2.497l0.332 0.332c0.636 0.634-1.54 0.582 23.293 0.56 20.793-0.019 22.122-0.028 22.378-0.154 0.573-0.285 0.543-0.17 0.543-2.022v-1.673l-0.892-0.438-22.071-0.012c-12.748-0.007-22.193 0.016-22.364 0.057z"></path></symbol>
<symbol id="close" viewBox="0 0 32 32"><path d="M32 3.224l-3.224-3.224-12.776 12.776-12.776-12.776-3.224 3.224 12.776 12.776-12.776 12.776 3.224 3.224 12.776-12.776 12.776 12.776 3.224-3.224-12.776-12.776 12.776-12.776z"></path></symbol>
<symbol id="why-2" viewBox="0 0 34 32"><path fill="#06f" stroke="#06f" stroke-width=".582" d="m21.38 8.512.006.004a.996.996 0 0 1 .491.622.997.997 0 0 1-.11.784l-.003.005-7.615 13.175-.001.001a1.046 1.046 0 0 1-.902.517h-.012a.877.877 0 0 1-.497-.128l-.004-.002-.004-.002a1.036 1.036 0 0 1-.513-1.031c.018-.136.062-.265.13-.383l7.617-13.179a1.036 1.036 0 0 1 1.031-.513c.135.018.265.062.383.13zm-5.991 4.129v.024a4.313 4.313 0 0 1-4.104 4.494 4.338 4.338 0 0 1-4.125-4.495v-.02a4.334 4.334 0 0 1 4.126-4.475 4.318 4.318 0 0 1 4.104 4.474zm-4.137 2.433.033.004.033-.004a2.255 2.255 0 0 0 1.987-2.42 2.236 2.236 0 0 0-1.99-2.424l-.03-.003-.03.003a2.254 2.254 0 0 0-2.011 2.423 2.275 2.275 0 0 0 2.008 2.42zm7.492 4.265.001-.012v-.012a4.315 4.315 0 0 1 4.104-4.474 4.334 4.334 0 0 1 4.126 4.475v.02a4.337 4.337 0 0 1-4.125 4.495 4.319 4.319 0 0 1-4.104-4.494zm4.071 2.408.033.004.033-.004a2.274 2.274 0 0 0 2.008-2.42 2.252 2.252 0 0 0-2.011-2.423l-.032-.003-.032.004a2.255 2.255 0 0 0-1.987 2.422 2.256 2.256 0 0 0 1.987 2.422z" style="fill:var(--color1, #06f);stroke:var(--color1, #06f)"/><path fill="#06f" stroke="#06f" stroke-width=".582" d="M17.058.299h.018a16.267 16.267 0 0 1 11.635 4.388A16.254 16.254 0 0 1 33.842 16a16.256 16.256 0 0 1-16.766 15.701h-.018a16.267 16.267 0 0 1-11.635-4.388A16.254 16.254 0 0 1 .292 16 16.256 16.256 0 0 1 17.058.299zM2.376 15.988v.024a14.19 14.19 0 0 0 4.541 9.836 14.209 14.209 0 0 0 10.15 3.77 14.204 14.204 0 0 0 10.15-3.77 14.19 14.19 0 0 0 4.541-9.836l.001-.012-.001-.012a14.19 14.19 0 0 0-4.541-9.836 14.207 14.207 0 0 0-10.15-3.77 14.206 14.206 0 0 0-10.15 3.77 14.19 14.19 0 0 0-4.541 9.836z" style="fill:var(--color1, #06f);stroke:var(--color1, #06f)"/></symbol><symbol id="why-3" viewBox="0 0 46 32"><path fill="#06f" stroke="#06f" stroke-width=".762" d="M2.445 2.445A7.046 7.046 0 0 1 7.428.381h30.857a7.052 7.052 0 0 1 4.983 2.064 7.047 7.047 0 0 1 2.064 4.983v2.476H.38V7.428c0-1.869.743-3.662 2.064-4.983zM.381 24.571V14.095h44.952v10.476a7.052 7.052 0 0 1-2.064 4.983 7.047 7.047 0 0 1-4.983 2.064H7.429a7.044 7.044 0 0 1-7.047-7.047zm36.762-3.238h-5.714a2.096 2.096 0 0 0 0 4.192h5.714a2.096 2.096 0 0 0 0-4.192z" style="fill:var(--color1, #06f);stroke:var(--color1, #06f)"/></symbol><symbol id="why-4" viewBox="0 0 24 32"><path fill="#06f" stroke="#fff" stroke-width=".615" d="M6.308 12v-.308H.743L12 .435l11.257 11.257h-5.565v14H6.307V12zm5.91-7.976L12 3.806 6.499 9.307h2.193v14h6.615v-14H17.5l-5.283-5.283zM6.657 29.657c.224-.224.527-.349.843-.349h9a1.196 1.196 0 0 1 1.192 1.192 1.196 1.196 0 0 1-1.192 1.192h-9a1.194 1.194 0 0 1-.843-2.035z" style="fill:var(--color1, #06f);stroke:var(--color2, #fff)"/></symbol></defs></svg>